<svg width="657" height="584" viewBox="0 0 657 584" fill="none" xmlns="http://www.w3.org/2000/svg">
<path d="M625.439 170.041L487.936 280.193L345.071 10.9492C341.397 4.01479 334.92 0.54068 328.417 0.54068C321.927 0.54068 315.425 4.01479 311.738 10.9492L168.873 280.193L31.3703 170.041C16.893 158.447 -3.12687 172.936 1.30208 191.741L53.7839 414.111L88.5243 436.624L63.5378 455.47L79.3848 522.608C81.548 531.762 89.2155 538.187 97.9966 538.187H558.812C567.593 538.187 575.261 531.762 577.424 522.608L593.271 455.47L578.013 434.79L603.025 414.111L655.507 191.741C659.949 172.895 639.89 158.475 625.439 170.041V170.041Z" fill="#FFDE37"/>
<path d="M655.507 191.741L603.025 414.111L578.013 434.79L593.271 455.47L577.424 522.608C575.261 531.762 567.594 538.187 558.812 538.187H328.417V0.54068C334.92 0.54068 341.397 4.01479 345.071 10.9492L487.936 280.193L625.439 170.041C639.89 158.475 659.949 172.895 655.507 191.741Z" fill="#FFB524"/>
<rect x="95" y="548" width="476" height="36" rx="18" fill="#FFA800"/>
</svg>
