<svg width="326" height="286" viewBox="0 0 326 286" fill="none" xmlns="http://www.w3.org/2000/svg">
<path d="M163 111.566C193.594 111.566 218.395 86.7648 218.395 56.1713C218.395 25.5777 193.594 0.776772 163 0.776772C132.406 0.776772 107.605 25.5777 107.605 56.1713C107.605 86.7648 132.406 111.566 163 111.566Z" fill="#E0E0E0"/>
<path d="M275.062 111.565C294.403 111.565 310.082 95.8864 310.082 76.5457C310.082 57.2049 294.403 41.5261 275.062 41.5261C255.722 41.5261 240.043 57.2049 240.043 76.5457C240.043 95.8864 255.722 111.565 275.062 111.565Z" fill="#E0E0E0"/>
<path d="M50.9375 111.565C70.2783 111.565 85.957 95.8864 85.957 76.5457C85.957 57.2049 70.2783 41.5261 50.9375 41.5261C31.5967 41.5261 15.918 57.2049 15.918 76.5457C15.918 95.8864 31.5967 111.565 50.9375 111.565Z" fill="#E0E0E0"/>
<path d="M85.4413 143.013C71.6563 131.719 59.1722 133.214 43.2332 133.214C19.3945 133.214 0 152.494 0 176.186V245.722C0 256.012 8.39832 264.378 18.7259 264.378C63.3128 264.378 57.9414 265.185 57.9414 262.455C57.9414 213.182 52.1052 177.048 85.4413 143.013V143.013Z" fill="#E0E0E0"/>
<path d="M178.16 133.468C150.32 131.146 126.122 133.495 105.25 150.723C70.3211 178.701 77.043 216.371 77.043 262.455C77.043 274.647 86.9631 284.753 99.3409 284.753C233.741 284.753 239.09 289.088 247.06 271.439C249.673 265.47 248.957 267.367 248.957 210.269C248.957 164.918 209.689 133.468 178.16 133.468V133.468Z" fill="#E0E0E0"/>
<path d="M282.767 133.214C266.741 133.214 254.325 131.734 240.559 143.013C273.646 176.794 268.059 210.464 268.059 262.455C268.059 265.202 263.6 264.378 306.606 264.378C317.302 264.378 326 255.712 326 245.06V176.186C326 152.493 306.606 133.214 282.767 133.214Z" fill="#E0E0E0"/>
</svg>
