<svg width="545" height="500" viewBox="0 0 545 500" fill="none" xmlns="http://www.w3.org/2000/svg">
<path d="M544.218 189.863C542.34 184.303 537.344 180.252 531.329 179.412L362.378 155.799L286.818 8.55938C284.129 3.31688 278.579 0 272.501 0C266.424 0 260.872 3.31688 258.183 8.55938L182.619 155.798L13.6706 179.412C7.65755 180.252 2.65888 184.303 0.782255 189.861C-1.0965 195.422 0.470371 201.525 4.82185 205.603L127.072 320.215L98.2168 482.047C97.1896 487.81 99.6528 493.631 104.569 497.068C109.486 500.502 116.003 500.957 121.385 498.236L272.499 421.827L423.61 498.235C425.947 499.416 428.497 499.998 431.039 499.998C434.349 499.998 437.645 499.011 440.425 497.068C445.342 493.631 447.805 487.808 446.778 482.047L417.914 320.215L540.177 205.603C544.53 201.524 546.097 195.421 544.218 189.863Z" fill="#056EFF"/>
<path d="M544.219 189.864C542.345 184.303 537.358 180.252 531.354 179.412L362.712 155.799L287.292 8.55939C284.607 3.31688 279.067 0 273 0V421.828L423.834 498.236C426.166 499.418 428.712 500 431.249 500C434.553 500 437.843 499.012 440.618 497.069C445.526 493.632 447.984 487.809 446.959 482.049L418.147 320.215L540.186 205.603C544.531 201.524 546.095 195.421 544.219 189.864Z" fill="#2633D5"/>
<path d="M421.755 471L272.5 395.497L123.245 471L151.751 311.083L31 197.831L197.873 174.5L272.5 29L347.127 174.499L514 197.829L393.251 311.082L421.755 471ZM272.5 355.797L373.252 406.763L354.009 298.816L435.518 222.366L322.875 206.617L272.5 108.402L222.125 206.617L109.482 222.366L190.991 298.816L171.748 406.763L272.5 355.797Z" fill="#A3EFFF"/>
<path d="M514 197.835L346.779 174.502L294.434 72.6553L272 29V108.404L322.479 206.62L435.354 222.363L353.683 298.815L372.957 406.764L272 355.8V395.496L421.57 471L393 311.079L514 197.835Z" fill="#6AD9EB"/>
</svg>
