<svg width="493" height="347" viewBox="0 0 493 347" fill="none" xmlns="http://www.w3.org/2000/svg">
<path d="M493 42.3921H0V300.238H493V42.3921Z" fill="#DC8744"/>
<path d="M62.6434 193.393C74.7213 193.393 84.5124 184.476 84.5124 173.476C84.5124 162.476 74.7213 153.558 62.6434 153.558C50.5655 153.558 40.7744 162.476 40.7744 173.476C40.7744 184.476 50.5655 193.393 62.6434 193.393Z" fill="#FCD462"/>
<path d="M430.882 193.872C443.251 193.872 453.277 184.74 453.277 173.476C453.277 162.211 443.251 153.079 430.882 153.079C418.513 153.079 408.487 162.211 408.487 173.476C408.487 184.74 418.513 193.872 430.882 193.872Z" fill="#FCD462"/>
<path d="M195.904 112.343L162.941 202.8L128.97 112.343H99.6069L147.54 234.656H176.472L224.692 112.343H195.904V112.343Z" fill="#FFC700"/>
<path d="M237.648 112.343V234.656H264.707V112.343H237.648Z" fill="#FFC700"/>
<path d="M385.62 126.109C380.436 119.948 374.103 116.015 366.33 114.18C361.292 112.868 350.641 112.343 334.087 112.343H290.616V234.656H317.678V188.511H335.384C347.617 188.511 356.975 187.855 363.452 186.808C368.201 185.758 372.951 183.921 377.558 180.906C382.164 178.022 386.049 173.961 388.929 168.846C391.952 163.732 393.535 157.44 393.535 149.97C393.535 140.268 390.8 132.27 385.62 126.109ZM362.444 159.801C360.43 162.554 357.551 164.518 353.953 165.831C350.354 167.144 343.301 167.668 332.506 167.668H317.68V133.057H330.777C340.565 133.057 347.042 133.32 350.353 133.844C354.671 134.632 358.413 136.334 361.149 139.219C364.03 142.103 365.467 145.773 365.467 150.231C365.466 153.9 364.459 157.049 362.444 159.801Z" fill="#FFC700"/>
<path d="M493 290.633V305.708C493 327.996 473.134 346.086 448.665 346.086H44.477C19.8624 346.087 0 327.997 0 305.709V290.634H493V290.633Z" fill="#FFC700"/>
<path d="M493 41.2913V56.3656H0V41.2913C0 19.0059 19.8624 0.913345 44.477 0.913345H448.664C473.133 0.913345 493 19.0059 493 41.2913Z" fill="#FFC700"/>
<rect x="349" y="21" width="117" height="8" rx="4" fill="white"/>
<rect x="19" y="318" width="73" height="8" rx="4" fill="white"/>
<rect x="96" y="318" width="31" height="8" rx="4" fill="white"/>
</svg>
